<svg width="14" height="13" viewBox="0 0 14 13" fill="none" xmlns="http://www.w3.org/2000/svg">
<path fill-rule="evenodd" clip-rule="evenodd" d="M1.47141 0L9.33337 7.862L9.50316 8.03175L11.0492 9.57778L12.0136 10.5422L12.8048 11.3333L11.8619 12.2762L5.99216 6.40634L5.99219 11.5346L2.53187 8.864H0V3.53066H2.528L2.85728 3.2715L0.528594 0.942812L1.47141 0ZM11.2906 0.875469C13.4074 3.23919 13.8687 6.54359 12.6743 9.31722L11.6446 8.28753C12.3906 6.06869 11.9258 3.53841 10.2504 1.70756L11.2906 0.875469ZM8.65353 2.98513C9.54809 3.98275 9.95216 5.25919 9.86566 6.50863L8.32703 4.97C8.17631 4.56644 7.94741 4.185 7.64028 3.84863L7.61216 3.81822L8.65353 2.98513ZM5.99219 0.80475L5.99216 2.63519L4.96778 1.61081L5.99219 0.80475Z" fill="white"/>
</svg>
