<svg width="31" height="31" viewBox="0 0 31 31" fill="none" xmlns="http://www.w3.org/2000/svg">
<circle cx="15.5" cy="15.5" r="15.5" fill="#03001A"/>
<path d="M13.5 15L14.06 13.764C14.447 12.907 14.64 12.479 15.012 12.24C15.383 12 15.852 12 16.792 12H17.207C18.147 12 18.617 12 18.988 12.24C19.36 12.48 19.553 12.907 19.941 13.764L20.5 15M22 15H12.641C11.665 15 10.685 15.85 9.879 16.309C9.536 16.504 9.365 16.601 9.207 16.571C9.05 16.541 8.886 16.35 8.557 15.97C7.872 15.174 7.13 15 6 15C5.448 15 5 15.522 5 16.167V20.833C5 21.478 5.448 22 6 22C7.129 22 7.871 21.826 8.558 21.03C8.886 20.65 9.05 20.46 9.208 20.43C9.365 20.399 9.536 20.497 9.878 20.692C10.686 21.15 11.666 22 12.642 22H22C23.657 22 25 20.433 25 18.5C25 16.567 23.657 15 22 15Z" stroke="#B4FF00" stroke-width="1.5" stroke-linecap="round" stroke-linejoin="round"/>
<path d="M17 12V8C17 7.73478 17.1054 7.48043 17.2929 7.29289C17.4804 7.10536 17.7348 7 18 7H19" stroke="#B4FF00" stroke-width="1.5" stroke-linecap="round" stroke-linejoin="round"/>
</svg>
